<?xml version="1.0" encoding="UTF-8" standalone="no"?>
<!-- Created with Inkscape (http://www.inkscape.org/) -->

<svg
   xmlns:dc="http://purl.org/dc/elements/1.1/"
   xmlns:cc="http://creativecommons.org/ns#"
   xmlns:rdf="http://www.w3.org/1999/02/22-rdf-syntax-ns#"
   xmlns:svg="http://www.w3.org/2000/svg"
   xmlns="http://www.w3.org/2000/svg"
   xmlns:sodipodi="http://sodipodi.sourceforge.net/DTD/sodipodi-0.dtd"
   xmlns:inkscape="http://www.inkscape.org/namespaces/inkscape"
   width="176.44466mm"
   height="176.44466mm"
   viewBox="0 0 625.19761 625.19759"
   id="svg2"
   version="1.1"
   inkscape:version="0.91 r13725"
   sodipodi:docname="campana.svg">
  <defs
     id="defs4" />
  <sodipodi:namedview
     id="base"
     pagecolor="#ffffff"
     bordercolor="#666666"
     borderopacity="1.0"
     inkscape:pageopacity="0.0"
     inkscape:pageshadow="2"
     inkscape:zoom="0.35"
     inkscape:cx="587.7394"
     inkscape:cy="24.105137"
     inkscape:document-units="px"
     inkscape:current-layer="layer1"
     showgrid="false"
     fit-margin-top="0"
     fit-margin-left="0"
     fit-margin-right="0"
     fit-margin-bottom="0"
     inkscape:window-width="683"
     inkscape:window-height="709"
     inkscape:window-x="683"
     inkscape:window-y="22"
     inkscape:window-maximized="0" />
  <metadata
     id="metadata7">
    <rdf:RDF>
      <cc:Work
         rdf:about="">
        <dc:format>image/svg+xml</dc:format>
        <dc:type
           rdf:resource="http://purl.org/dc/dcmitype/StillImage" />
        <dc:title></dc:title>
      </cc:Work>
    </rdf:RDF>
  </metadata>
  <g
     inkscape:label="Capa 1"
     inkscape:groupmode="layer"
     id="layer1"
     transform="translate(-312.97489,63.016008)">
    <path
       style="fill:#000000"
       d="m 607.59132,560.58624 c -11.6127,-2.5749 -18.3365,-5.2712 -28.4164,-11.3953 -23.6966,-14.3971 -40.1265,-40.1944 -42.1663,-66.207 -0.3882,-4.95 -1.2034,-9.3306 -1.8115,-9.7347 -0.6082,-0.404 -37.4865,-0.7415 -81.9519,-0.75 -90.01514,-0.017 -86.2982,0.2459 -97.32893,-6.8836 -10.61124,-6.8584 -18.25772,-18.5028 -20.17383,-30.7217 l -0.87799,-5.5989 20.67496,-20.6555 c 24.54577,-24.52273 38.68106,-42.46707 55.26359,-70.15557 7.0939,-11.84502 18.9802,-35.29151 22.8128,-45 12.0779,-30.5945 17.3966,-46.88639 22.9022,-70.15256 7.558,-31.9389 10.6019,-55.33661 12.0792,-92.84744 1.8018,-45.749702 4.4528,-59.731042 15.1531,-79.915202 11.6299,-21.93791 27.2722,-37.31012 50.5104,-49.63822009 13.2663,-7.03790001 32.7937,-13.42779991 48.8306,-15.97867991 5.5,-0.87485 10.3542,-1.93974 10.7872,-2.36643 0.4329,-0.42668 0.3204,-2.00336 -0.25,-3.50373 -0.5705,-1.50037 -1.0328,-5.96114 -1.0274,-9.91284 0.017,-12.3718 7.0248,-23.33529 18.6964,-29.24923 5.0581,-2.5629 6.8731,-2.93567 14.2938,-2.93567 7.0082,0 9.3775,0.43175 13.5,2.46008 12.2522,6.02827 19.4978,17.07356 19.4992,29.72482 4e-4,3.9517 -0.4659,8.41247 -1.0364,9.91284 -0.5704,1.50037 -0.6829,3.07705 -0.25,3.50373 0.433,0.42669 5.0622,1.4619 10.2872,2.30047 34.3234,5.5086399 65.6928,21.4693599 84.0998,42.78992 8.046,9.31965 10.2371,12.50833 15.7308,22.89294 10.0952,19.08264 13.5545,36.04099 14.6701,71.915202 2.2655,72.85299 16.6332,133.99714 44.9993,191.50165 18.0004,36.49075 37.9388,64.02066 68.551,94.65132 l 20.6406,20.653 -0.7541,5.5568 c -2.135,15.733 -14.4267,30.1287 -30.4248,35.6329 -5.6414,1.9409 -8.3925,2.0048 -86.9192,2.0196 -44.6014,0.01 -81.5911,0.346 -82.1993,0.75 -0.6081,0.4041 -1.4233,4.7847 -1.8115,9.7347 -2.7597,35.1937 -30.3314,67.1449 -66.0827,76.5794 -11.5453,3.0467 -29.3452,3.4963 -40.5,1.0229 z m 22.0288,-27.6369 c 1.5861,-1.9112 1.5124,-7.5129 -0.112,-8.5168 -0.6646,-0.4107 -4.1166,-1.0582 -7.6712,-1.4389 -18.6083,-1.9928 -33.6486,-12.5571 -41.3869,-29.0702 -2.8671,-6.1182 -3.9801,-9.9876 -4.4708,-15.5428 -0.8766,-9.9238 -3.7455,-12.9164 -9.4536,-9.8615 -1.6111,0.8622 -1.9343,2.1331 -1.9343,7.6057 0,10.9348 4.0347,22.9995 10.8217,32.3591 3.9561,5.4557 14.1657,14.7681 19.6783,17.949 11.3769,6.5648 31.3589,10.3358 34.5288,6.5164 z m 221.9712,-105.0289 c 0,-0.31 -3.7427,-4.9225 -8.3171,-10.25 -34.5405,-40.22705 -62.501,-89.78802 -79.6311,-141.14881 -16.2293,-48.65988 -24.3146,-94.92686 -25.6078,-146.53766 -0.2894,-11.55 -1.2314,-25.95 -2.0933,-32.000002 -5.3728,-37.71131 -28.7854,-60.37111 -70.8507,-68.57263 -24.4359,-4.76428 -55.1984,-4.75108 -79.0674,0.0339 -42.3861,8.4971 -65.4493,30.82622 -70.792,68.5387 -0.8572,6.050002 -1.7952,20.450002 -2.0846,32.000002 -2.3529,93.90151 -29.197,180.51651 -78.2558,252.5 -6.0252,8.84068 -19.9254,26.96677 -26.9831,35.18647 -4.57439,5.3275 -8.3171,9.94 -8.3171,10.25 0,0.3099 101.7,0.5635 226,0.5635 124.3,0 226,-0.2536 226,-0.5635 z"
       id="path4213"
       inkscape:connector-curvature="0" />
  </g>
</svg>
