<?xml version="1.0" encoding="UTF-8" standalone="no"?>
<!-- Created with Inkscape (http://www.inkscape.org/) -->

<svg
   xmlns:dc="http://purl.org/dc/elements/1.1/"
   xmlns:cc="http://creativecommons.org/ns#"
   xmlns:rdf="http://www.w3.org/1999/02/22-rdf-syntax-ns#"
   xmlns:svg="http://www.w3.org/2000/svg"
   xmlns="http://www.w3.org/2000/svg"
   xmlns:sodipodi="http://sodipodi.sourceforge.net/DTD/sodipodi-0.dtd"
   xmlns:inkscape="http://www.inkscape.org/namespaces/inkscape"
   width="176.10666mm"
   height="176.10666mm"
   viewBox="0 0 623.99998 623.99996"
   id="svg2"
   version="1.1"
   inkscape:version="0.91 r13725"
   sodipodi:docname="diamante.svg">
  <defs
     id="defs4" />
  <sodipodi:namedview
     id="base"
     pagecolor="#ffffff"
     bordercolor="#666666"
     borderopacity="1.0"
     inkscape:pageopacity="0.0"
     inkscape:pageshadow="2"
     inkscape:zoom="0.35"
     inkscape:cx="528.44114"
     inkscape:cy="31.407544"
     inkscape:document-units="px"
     inkscape:current-layer="layer1"
     showgrid="false"
     fit-margin-top="0"
     fit-margin-left="0"
     fit-margin-right="0"
     fit-margin-bottom="0"
     inkscape:window-width="683"
     inkscape:window-height="709"
     inkscape:window-x="683"
     inkscape:window-y="22"
     inkscape:window-maximized="0" />
  <metadata
     id="metadata7">
    <rdf:RDF>
      <cc:Work
         rdf:about="">
        <dc:format>image/svg+xml</dc:format>
        <dc:type
           rdf:resource="http://purl.org/dc/dcmitype/StillImage" />
        <dc:title></dc:title>
      </cc:Work>
    </rdf:RDF>
  </metadata>
  <g
     inkscape:label="Capa 1"
     inkscape:groupmode="layer"
     id="layer1"
     transform="translate(-372.27315,54.51596)">
    <path
       style="fill:#000000"
       d="M 663.08663,429.95357 C 620.94213,346.52532 559.74173,225.05543 554.23843,213.91266 l -5.6797,-11.5 136.0203,-0.25358 c 74.8111,-0.13947 136.1911,-0.0828 136.3998,0.1259 0.2087,0.20871 -4.0732,9.09783 -9.5152,19.75358 -10.1107,19.79686 -30.4738,59.85071 -61.1977,120.3741 -9.4927,18.7 -22.7652,44.80001 -29.4943,58.00001 -6.7292,13.2 -17.55,34.4625 -24.0464,47.25 -6.4963,12.7875 -12.0682,23.248 -12.3818,23.2457 -0.3137,0 -9.8792,-18.4321 -21.2568,-40.9548 z m -30.3958,6.6082 c -0.5953,-0.632 -3.7453,-3.5744 -7,-6.5387 -3.2547,-2.9642 -9.099,-8.3642 -12.9874,-11.9999 -3.8883,-3.6358 -9.767,-9.0855 -13.0638,-12.1105 -16.5884,-15.221 -30.2573,-27.86275 -44.3319,-41.00076 -8.544,-7.97542 -21.1557,-19.67542 -28.026,-26 -6.8702,-6.32459 -13.2025,-12.17425 -14.0717,-12.99925 -0.8692,-0.825 -6.7076,-6.225 -12.9741,-12 -6.2665,-5.775 -18.38423,-17.02507 -26.92823,-25.00016 -8.544,-7.97509 -23.85955,-22.12218 -34.03455,-31.43797 -10.175,-9.31579 -19.21289,-17.64072 -20.0842,-18.49984 -0.87131,-0.85911 -10.01809,-9.43703 -20.32618,-19.06203 l -18.74198,-17.5 67.28336,-0.2571 c 53.01078,-0.20257 67.53078,0.01 68.44958,1 0.6415,0.6914 17.487,33.6571 37.4345,73.2571 19.9475,39.6 46.3526,91.96436 58.678,116.36521 12.3254,24.4009 22.2741,44.493 22.1083,44.6492 -0.1657,0.1561 -0.7884,-0.2333 -1.3837,-0.8653 z m 120.1734,-35.3991 c 9.7276,-19.11251 22.7348,-44.65001 28.905,-56.75001 6.1703,-12.1 21.8371,-42.925 34.8151,-68.5 12.9781,-25.575 26.7143,-52.575 30.5249,-60 l 6.9284,-13.5 67.3678,-0.23288 67.3677,-0.23288 -6.0209,5.73288 c -3.3115,3.15308 -12.0865,11.32823 -19.5,18.16699 -7.4135,6.83876 -14.193,13.13876 -15.0655,14 -0.8725,0.86124 -6.7104,6.29089 -12.9731,12.06589 -32.0851,29.5867 -40.1009,37.01257 -47.4405,43.94927 -4.4,4.15848 -12.9295,12.05859 -18.9546,17.5558 -6.025,5.49721 -12.0908,11.09029 -13.4796,12.42907 -1.3887,1.33878 -8.1591,7.6263 -15.0454,13.97227 -6.8862,6.34597 -19.0454,17.64099 -27.0204,25.10005 -7.975,7.45905 -22.825,21.1947 -33,30.52365 -10.175,9.329 -18.95,17.438 -19.5,18.0201 -3.2377,3.4266 -24.3501,22.4498 -24.9152,22.4498 -0.3741,0 7.2788,-15.6375 17.0063,-34.75 z M 372.27315,172.33692 c 0,-0.53888 3.50876,-5.26462 22.06654,-29.72007 4.0884,-5.3877 8.33346,-11.09742 9.43346,-12.68826 1.72594,-2.49609 15.35052,-20.63325 18.80681,-25.03579 1.73344,-2.20802 12.82855,-17.00246 15.18428,-20.24703 9.7169,-13.38317 25.12248,-33.67425 25.58637,-33.70047 0.3176,-0.0179 9.51006,26.85486 20.42769,59.71736 10.91763,32.8625 20.04343,60.3125 20.27953,61 0.3406,0.99172 -13.2298,1.25 -65.67769,1.25 -36.35884,0 -66.10699,-0.25908 -66.10699,-0.57574 z m 189.99998,-0.17733 c 0,-0.41419 27.45,-28.20031 61,-61.74693 l 61,-60.99385 61,60.99385 c 33.55,33.54662 61,61.33274 61,61.74693 0,0.41419 -54.9,0.75307 -122,0.75307 -67.1,0 -122,-0.33888 -122,-0.75307 z m 305,-0.713 c 0,-0.80634 0.6687,-2.94384 1.486,-4.75 0.8172,-1.80616 4.4583,-10.93393 8.0914,-20.28393 3.633,-9.35 9.9775,-25.55 14.0988,-36 4.1214,-10.45 9.0661,-23.05 10.9882,-28 1.9221,-4.95 4.0808,-10.35 4.7971,-12 0.7163,-1.65 1.8404,-4.6875 2.498,-6.75 0.6576,-2.0625 1.5845,-3.75 2.0597,-3.75 0.7495,0 14.7226,17.73241 20.4808,25.99102 1.7359,2.48962 7.9194,10.74558 38.7975,51.8007 3.1886,4.23955 6.3386,8.39243 7,9.22862 4.3926,5.55357 18.7025,25.03315 18.7025,25.45896 0,0.28638 -29.025,0.5207 -64.5,0.5207 -56.0033,0 -64.5,-0.19313 -64.5,-1.46607 z m -87.9719,-67.67454 -59.3854,-59.35939 82.3395,-0.25585 c 45.2867,-0.14071 82.536,-0.0593 82.7763,0.181 0.4942,0.49421 -1.5506,6.14084 -9.2615,25.57485 -9.1594,23.08469 -22.0423,55.85552 -27.9116,71 -3.0907,7.975 -6.4188,16.23673 -7.3957,18.35939 l -1.7762,3.85939 -59.3854,-59.35939 z m -248.4976,56.00323 c -3.2,-8.84132 -38.3524,-115.374 -38.1399,-115.58653 0.1586,-0.15864 35.305,-0.17315 78.103,-0.0322 l 77.8146,0.25617 -56.9764,57 c -31.337,31.35 -57.726,57.61317 -58.6423,58.36261 -1.4061,1.15018 -1.7427,1.15018 -2.159,0 z"
       id="path4181"
       inkscape:connector-curvature="0" />
  </g>
</svg>
