<?xml version="1.0" encoding="UTF-8" standalone="no"?>
<!-- Created with Inkscape (http://www.inkscape.org/) -->

<svg
   xmlns:dc="http://purl.org/dc/elements/1.1/"
   xmlns:cc="http://creativecommons.org/ns#"
   xmlns:rdf="http://www.w3.org/1999/02/22-rdf-syntax-ns#"
   xmlns:svg="http://www.w3.org/2000/svg"
   xmlns="http://www.w3.org/2000/svg"
   xmlns:sodipodi="http://sodipodi.sourceforge.net/DTD/sodipodi-0.dtd"
   xmlns:inkscape="http://www.inkscape.org/namespaces/inkscape"
   width="176.59622mm"
   height="176.59622mm"
   viewBox="0 0 625.73465 625.73463"
   id="svg2"
   version="1.1"
   inkscape:version="0.91 r13725"
   sodipodi:docname="herradura.svg">
  <defs
     id="defs4" />
  <sodipodi:namedview
     id="base"
     pagecolor="#ffffff"
     bordercolor="#666666"
     borderopacity="1.0"
     inkscape:pageopacity="0.0"
     inkscape:pageshadow="2"
     inkscape:zoom="0.35"
     inkscape:cx="526.73936"
     inkscape:cy="225.48578"
     inkscape:document-units="px"
     inkscape:current-layer="layer1"
     showgrid="false"
     fit-margin-top="0"
     fit-margin-left="0"
     fit-margin-right="0"
     fit-margin-bottom="0"
     inkscape:window-width="683"
     inkscape:window-height="709"
     inkscape:window-x="683"
     inkscape:window-y="22"
     inkscape:window-maximized="0" />
  <metadata
     id="metadata7">
    <rdf:RDF>
      <cc:Work
         rdf:about="">
        <dc:format>image/svg+xml</dc:format>
        <dc:type
           rdf:resource="http://purl.org/dc/dcmitype/StillImage" />
        <dc:title></dc:title>
      </cc:Work>
    </rdf:RDF>
  </metadata>
  <g
     inkscape:label="Capa 1"
     inkscape:groupmode="layer"
     id="layer1"
     transform="translate(-373.97493,-137.82763)">
    <path
       style="fill:#000000"
       d="m 429.54224,756.90268 c -4.96804,-11.17484 -5.31774,-11.98055 -14.8218,-34.14965 -5.06946,-11.825 -10.29457,-23.87584 -11.61135,-26.77964 -1.31678,-2.90379 -2.39415,-5.4599 -2.39415,-5.68023 0,-0.22032 -1.28847,-3.24449 -2.86327,-6.72036 -3.93832,-8.69262 -10.13673,-23.41737 -10.13673,-24.08051 0,-0.29993 4.6125,-3.72659 10.25,-7.6148 5.6375,-3.88822 13.4,-9.30104 17.25,-12.02851 3.85,-2.72746 12.08875,-8.45027 18.30833,-12.71736 6.21958,-4.26708 11.50396,-8.07487 11.74307,-8.46175 0.2391,-0.38688 -0.86817,-5.13894 -2.4606,-10.56013 -9.99807,-34.03683 -19.17099,-80.94448 -24.02496,-122.85671 -3.24488,-28.01826 -4.18057,-74.19143 -2.09742,-103.5 5.11612,-71.98054 28.94409,-132.7698 67.94861,-173.34868 28.58965,-29.74362 67.51977,-50.66364 114.58297,-61.57384 58.31076,-13.51762 135.7708,-11.66425 190.5,4.55804 37.4979,11.11477 69.9928,29.61018 94.1016,53.56067 13.7698,13.67943 18.4567,19.43768 28.688,35.24571 34.7778,53.73396 49.526,125.77016 44.191,215.84675 -2.8606,48.29864 -13.0995,108.03547 -26.0645,152.06806 -1.5962,5.42119 -2.7104,10.16717 -2.4758,10.54662 0.2345,0.37946 7.2187,5.39394 15.5204,11.1433 28.2092,19.53619 36.6922,25.45011 39.4953,27.53385 l 2.7987,2.08047 -4.186,9.91953 c -2.3023,5.45573 -4.7969,11.26952 -5.5435,12.91952 -1.5121,3.34149 -7.9294,18.21334 -19.2022,44.5 -4.1275,9.625 -8.1098,18.85 -8.8493,20.5 -0.7396,1.65 -2.6761,5.99458 -4.3033,9.65462 l -2.9585,6.65462 -11.8559,-4.49109 c -6.5208,-2.4701 -17.706,-6.7242 -24.856,-9.45357 -7.15,-2.72937 -18.85,-7.16577 -26,-9.85868 -7.15,-2.6929 -20.2,-7.65259 -29,-11.02152 -8.8,-3.36894 -21.85,-8.32489 -29,-11.01323 -12.7274,-4.78541 -27.0263,-10.25078 -37,-14.14225 -2.75,-1.07297 -8.825,-3.31508 -13.5,-4.98244 -4.675,-1.66737 -8.8481,-3.36051 -9.2735,-3.76255 -0.7249,-0.68501 0.8831,-4.57861 9.5332,-23.08391 19.2453,-41.17166 35.2105,-84.90668 45.0828,-123.5 12.339,-48.23643 14.2844,-97.59162 5.1659,-131.06249 -6.6574,-24.43708 -16.1943,-41.2423 -32.938,-58.04081 -9.4357,-9.46651 -21.0152,-18.08693 -31.2102,-23.23463 -8.299,-4.19034 -24.10896,-9.94901 -34.3602,-12.51546 -25.72409,-6.44016 -45.73108,-6.326 -71.45891,0.40771 -58.13153,15.2147 -93.02608,54.55508 -101.0874,113.9667 -2.0119,14.8276 -2.02827,42.58131 -0.0354,59.97898 4.60867,40.23312 19.96111,94.46457 39.98401,141.24082 2.52872,5.90745 4.59768,10.93709 4.59768,11.17697 0,0.42353 4.49492,10.38975 9.73392,21.58221 4.92088,10.51282 10.2661,22.20061 10.2661,22.44769 0,0.35366 -6.13622,2.85342 -16,6.51806 -4.675,1.73688 -11.2,4.23342 -14.5,5.54786 -3.3,1.31444 -13.875,5.34975 -23.5,8.96735 -9.625,3.6176 -18.625,7.05619 -20,7.6413 -1.375,0.58512 -8.35,3.25175 -15.5,5.92585 -7.15,2.6741 -20.2,7.61315 -29,10.97565 -8.8,3.36251 -18.25,6.94939 -21,7.97085 -2.75,1.02146 -13.2612,4.99538 -23.35822,8.83094 l -18.35821,6.97375 -2.95627,-6.64965 z m 72.11797,-200.12173 c 11.56207,-5.89853 14.49497,-21.76224 5.84486,-31.61417 -10.70793,-12.19565 -29.908,-8.66833 -35.25128,6.47615 -2.02556,5.74103 -1.94445,7.95102 0.53505,14.57806 4.36992,11.67967 17.36196,16.43162 28.87137,10.55996 z m 386.49123,1.88376 c 8.8242,-2.22197 15.5635,-11.01147 15.5635,-20.29824 0,-5.95131 -4.127,-13.73648 -9.114,-17.19242 -5.6532,-3.91771 -13.9915,-4.51653 -20.3086,-1.45848 -14.8204,7.17444 -16.0204,28.23007 -2.0774,36.451 6.2591,3.69043 9.3052,4.16792 15.9365,2.49814 z M 489.54113,458.21201 c 8.89693,-2.64211 15.17381,-10.86775 15.17381,-19.88476 0,-6.07348 -4.14522,-13.73776 -9.28466,-17.1668 -8.64163,-5.76572 -20.58023,-4.1009 -27.24109,3.79873 -6.03611,7.15869 -6.99331,14.3528 -2.981,22.40445 2.79795,5.61478 6.88661,9.08708 12.92691,10.97825 5.32715,1.66788 5.35334,1.66758 11.40603,-0.12987 z m 411.55391,-1.82504 c 2.134,-1.17367 5.2841,-4.09072 7,-6.48235 2.8052,-3.90984 3.1199,-5.07833 3.1199,-11.5855 0,-6.26332 -0.3678,-7.76379 -2.7338,-11.15159 -3.9691,-5.68335 -8.9253,-8.68022 -15.2186,-9.20211 -17.3101,-1.43549 -28.4149,15.30168 -20.1704,30.40101 5.5804,10.22027 17.6943,13.68993 28.0029,8.02054 z M 517.75464,356.07051 c 1.60011,-0.94521 4.38328,-3.76582 6.1848,-6.26802 2.95543,-4.10491 3.2755,-5.23347 3.2755,-11.54946 0,-6.17499 -0.35124,-7.48774 -2.98016,-11.13837 -4.07568,-5.65966 -8.28909,-8.3101 -14.35212,-9.02817 -7.59911,-0.9 -13.37116,1.07872 -18.09457,6.20301 -13.6435,14.80145 -1.01101,37.91427 18.74205,34.29109 2.37335,-0.43533 5.62438,-1.56487 7.2245,-2.51008 z m 361.4593,-0.18098 c 1.6495,-0.96111 4.3495,-3.7475 6,-6.19198 2.6256,-3.88849 3.001,-5.32025 3.001,-11.44452 0,-6.12427 -0.3754,-7.55603 -3.001,-11.44452 -3.7687,-5.58165 -7.9278,-8.03782 -14.8139,-8.74853 -9.288,-0.95861 -15.1816,1.96877 -20.5215,10.19305 -2.0632,3.17761 -2.5972,5.23358 -2.5972,10 0,9.75716 6.3491,17.86197 15.64,19.96494 5.8809,1.33113 11.3545,0.54887 16.2926,-2.32844 z"
       id="path4245"
       inkscape:connector-curvature="0" />
  </g>
</svg>
